<svg width="1440" height="225" viewBox="0 0 1440 225" fill="none" xmlns="http://www.w3.org/2000/svg">
<path d="M-35.1767 27.8708C-35.1767 30.5629 -43.0798 165.068 -40.3984 225H1486.46C1486.46 220.348 1489 30.6731 1489 25.9435C1489 21.349 1486.46 16.9339 1486.46 12.5825C1486.46 10.1038 1493.8 8.39745 1476.3 8.17235C1469.46 8.08447 1472.62 5.45435 1464.87 5.85297C1461.36 6.03348 1455.27 6.30347 1452.17 6.7023C1444.42 7.69795 1427.76 6.99632 1419.28 6.99632C1400.88 6.99632 1382.55 7.58435 1364.53 7.58435C1346.74 7.58435 1329.52 6.99632 1311.74 6.99632C1297.34 6.99632 1291.32 10.5003 1277.73 9.87105C1264.54 9.26033 1250.97 8.04572 1238.08 7.12697C1227.68 6.38666 1213.01 6.93291 1201.95 6.53897C1173.87 5.53906 1131.88 10.4561 1105.98 6.73499C1102.38 6.21785 1088.7 5.31152 1087.77 4.35028C1086.43 2.95433 1080.54 2.88023 1074.79 2.88023C1056.72 2.88023 1038.89 2.29219 1020.6 2.29219C1009.67 2.29219 987.018 1.29414 977.836 2.55353C964.866 4.33272 950.302 5.82028 935.216 5.82028C920.061 5.82028 901.867 6.51581 887.515 5.23228C879.03 4.47343 876.593 4.03517 868.604 4.77492C860.402 5.53426 855.034 6.40829 845.741 6.40829C815.95 6.40829 787.923 4.46472 758.807 4.05626C752.417 3.96663 750.001 2.76241 745.54 3.79492C736.8 5.8181 722.218 6.40829 710.4 6.40829C705.31 6.40829 698.67 6.65331 694.029 6.04898C691.349 5.70006 689.552 4.68228 686.267 4.64426C677.595 4.54388 667.911 5.23228 658.888 5.23228C650.597 5.23228 641.315 3.83521 634.191 4.08891C625.515 4.39789 617.738 4.64426 608.788 4.64426C599.312 4.64426 583.15 3.88443 574.494 4.77492C558.018 6.46989 547.856 4.61104 533.99 3.20689C524.02 2.19719 517.735 4.80315 508.305 5.16693C497.222 5.5945 484.505 5.23228 473.306 5.23228C447.817 5.23228 422.386 5.12354 397.802 4.08891C374.372 3.10283 347.361 5.13713 325.545 3.01088C319.521 2.42378 311.772 1.11617 305.364 1.11617C295.926 1.11617 288.749 2.02986 279.82 2.25952C271.508 2.4733 263.429 1.15802 254.981 1.83488C249.504 2.27379 244.288 2.88261 238.611 3.33754C223.99 4.509 216.748 2.88023 202.482 2.88023C188.89 2.88023 182.136 5.23228 168.047 5.23228C155.082 5.23228 143.872 5.5051 132.483 4.18694C126.584 3.50424 114.866 1.17607 108.491 1.17607C100 1.17607 93.938 0 85.6284 0C73.175 0 61.2538 1.17607 48.0885 1.17607H14.3591C6.58398 1.17607 -42.7976 0.0673065 -42.7976 2.05804V11.7004C-42.7976 14.0184 -47.5051 15.9677 -47.8781 18.2993C-48.3001 20.9362 -48.0218 22.0635 -40.3984 24.0488C-35.5803 25.3034 -35.1767 26.3035 -35.1767 27.8708Z" fill="black"/>
</svg>
