<svg width="1440" height="101" viewBox="0 0 1440 101" fill="none" xmlns="http://www.w3.org/2000/svg">
<path d="M-7.76068 49.4526C-7.76068 44.4736 -9.40308 4.7664 -10.1853 -0.145571L1442.15 -8C1442.15 0.604648 1447 44.2697 1447 53.0173C1447 61.5148 1444.58 69.6806 1444.58 77.7286C1444.58 82.313 1451.58 85.4688 1434.88 85.8852C1428.35 86.0477 1431.36 90.9121 1423.97 90.1749C1420.62 89.841 1414.8 89.3417 1411.84 88.604C1404.45 86.7626 1388.55 88.0602 1380.46 88.0602C1362.89 88.0602 1345.4 86.9727 1328.19 86.9727C1311.22 86.9727 1294.78 88.0602 1277.82 88.0602C1264.07 88.0602 1258.16 85.809 1245.19 86.9727C1232.6 88.1022 1219.82 86.1193 1207.5 87.8186C1197.58 89.1878 1183.58 88.1775 1173.02 88.9061C1146.22 90.7554 1106.14 81.6613 1081.42 88.5436C1077.99 89.5 1064.93 91.1763 1064.05 92.9542C1062.77 95.536 1057.14 95.673 1051.66 95.673C1034.4 95.673 1017.39 96.7606 999.93 96.7606C989.501 96.7606 967.88 98.6065 959.116 96.2772C946.737 92.9866 932.837 90.2353 918.437 90.2353C903.972 90.2353 886.607 88.949 872.908 91.3228C864.81 92.7264 862.484 93.5369 854.859 92.1687C847.031 90.7643 841.907 89.1478 833.037 89.1478C804.603 89.1478 777.852 92.7424 750.062 93.4979C743.964 93.6637 741.658 95.8909 737.4 93.9813C729.058 90.2394 715.14 89.1478 703.86 89.1478C699.002 89.1478 692.664 88.6947 688.235 89.8124C685.677 90.4577 683.962 92.3401 680.826 92.4104C672.549 92.596 663.307 91.3228 654.694 91.3228C646.781 91.3228 637.921 93.9068 631.122 93.4375C622.841 92.8661 615.418 92.4104 606.876 92.4104C597.832 92.4104 582.405 93.8157 574.144 92.1687C558.418 89.0339 548.719 92.4718 535.485 95.0688C525.968 96.9362 519.969 92.1165 510.969 91.4437C500.391 90.6529 488.253 91.3228 477.564 91.3228C453.236 91.3228 428.963 91.524 405.499 93.4375C383.136 95.2613 357.355 91.4988 336.533 95.4313C330.783 96.5172 323.387 98.9356 317.271 98.9356C308.263 98.9356 301.413 97.2457 292.89 96.821C284.956 96.4256 277.245 98.8582 269.183 97.6064C263.954 96.7946 258.977 95.6686 253.557 94.8272C239.603 92.6605 232.691 95.673 219.074 95.673C206.101 95.673 199.655 91.3228 186.207 91.3228C173.833 91.3228 163.133 90.8183 152.263 93.2562C146.633 94.5189 135.448 98.8249 129.364 98.8249C121.26 98.8249 115.474 101 107.543 101C95.6563 101 84.2781 98.8249 71.7124 98.8249H39.519C32.0981 98.8249 -15.0345 100.875 -15.0345 97.1936V79.3599C-15.0345 75.0728 -19.5276 71.4675 -19.8837 67.1553C-20.2864 62.2782 -20.0208 60.1933 -12.7446 56.5216C-8.1459 54.201 -7.76068 52.3514 -7.76068 49.4526Z" fill="black"/>
</svg>
