<svg width="204" height="33" viewBox="0 0 204 33" fill="none" xmlns="http://www.w3.org/2000/svg">
<g clip-path="url(#clip0_101:2)">
<path d="M2.88721 23.7623C4.92515 27.483 8.40623 30.2675 12.5647 31.5032C16.7231 32.739 21.2183 32.3247 25.0612 30.3516C28.9042 28.3786 31.7802 25.0082 33.0566 20.9821C34.3329 16.956 33.9051 12.6039 31.8671 8.88316C30.0403 5.54776 28.8325 4.96965 30.3272 7.69823C31.6856 10.1756 32.2221 12.9981 31.8636 15.7814C31.5051 18.5646 30.269 21.1732 28.3237 23.2516C26.3785 25.33 23.8187 26.7773 20.9931 27.3961C18.1675 28.0149 15.2135 27.7753 12.5337 26.7098C10.7988 25.9156 9.32639 24.6698 8.2811 23.1117C7.23582 21.5535 6.65892 19.7445 6.61497 17.887C6.57102 16.0296 7.06174 14.1969 8.03223 12.594C9.00272 10.9912 10.4147 9.68137 12.1102 8.81114C12.2648 8.73158 12.4204 8.65672 12.578 8.58564C12.7195 8.50325 12.8644 8.42416 13.0112 8.35025C14.1416 7.76756 15.3845 7.41827 16.6614 7.32445C16.9807 7.2995 17.3011 7.29147 17.6213 7.30043C17.95 7.24291 18.2675 7.13652 18.5626 6.98502C19.1285 6.69409 19.5919 6.24632 19.8934 5.699C20.195 5.15168 20.3211 4.5297 20.2555 3.91263C20.1899 3.29555 19.9357 2.71145 19.5253 2.23505C19.115 1.75865 18.5671 1.41161 17.9519 1.23834C17.9513 1.23785 17.9505 1.23757 17.9497 1.23757C17.9489 1.23757 17.9481 1.23785 17.9475 1.23834C17.7807 1.20162 17.6149 1.16866 17.4477 1.13995C14.9108 0.679973 12.2882 1.03611 9.97999 2.15399C9.88761 2.19825 9.79587 2.24374 9.70478 2.29051C9.61386 2.33758 9.52341 2.38467 9.4354 2.43175C5.67425 4.44686 2.88067 7.81118 1.65599 11.8006C0.431301 15.7899 0.873432 20.0854 2.88721 23.7623Z" fill="white"/>
</g>
<path d="M62.7326 20.3681C62.7326 21.024 62.61 21.5941 62.3648 22.0783C62.1258 22.5626 61.7886 22.9641 61.3534 23.2828C60.9182 23.5954 60.4002 23.8284 59.7995 23.9816C59.1988 24.1349 58.5429 24.2115 57.8318 24.2115C57.2005 24.2115 56.5905 24.1747 56.0021 24.1011C55.4136 24.0276 54.8313 23.905 54.2551 23.7334V21.499C54.5371 21.5971 54.8313 21.6891 55.1378 21.7749C55.4443 21.8607 55.7508 21.9373 56.0572 22.0047C56.3699 22.066 56.6794 22.1151 56.9859 22.1519C57.2924 22.1886 57.5897 22.207 57.8778 22.207C58.3069 22.207 58.6716 22.1703 58.972 22.0967C59.2723 22.0231 59.5175 21.922 59.7075 21.7933C59.8976 21.6645 60.0355 21.5113 60.1213 21.3335C60.2071 21.1558 60.25 20.9596 60.25 20.7451C60.25 20.4508 60.1642 20.2056 59.9926 20.0095C59.8271 19.8072 59.6064 19.6294 59.3306 19.4762C59.0547 19.323 58.739 19.185 58.3835 19.0624C58.0341 18.9398 57.6755 18.8081 57.3077 18.6671C56.9461 18.5261 56.5875 18.3667 56.2319 18.1889C55.8825 18.0112 55.5699 17.7905 55.2941 17.5269C55.0182 17.2633 54.7945 16.9507 54.6229 16.5891C54.4574 16.2213 54.3746 15.7799 54.3746 15.265C54.3746 14.793 54.4604 14.3456 54.6321 13.9226C54.8037 13.4996 55.0734 13.1319 55.4412 12.8192C55.809 12.5005 56.281 12.2492 56.8572 12.0653C57.4334 11.8752 58.1291 11.7802 58.9444 11.7802C59.1835 11.7802 59.4317 11.7925 59.6892 11.817C59.9527 11.8354 60.2102 11.863 60.4615 11.8998C60.719 11.9304 60.9642 11.9703 61.1971 12.0193C61.4362 12.0622 61.6538 12.1082 61.8499 12.1572V14.226C61.6538 14.1525 61.4392 14.085 61.2063 14.0237C60.9734 13.9624 60.7312 13.9103 60.4799 13.8674C60.2347 13.8184 59.9865 13.7816 59.7351 13.7571C59.4838 13.7326 59.2447 13.7203 59.0179 13.7203C58.6195 13.7203 58.2824 13.754 58.0065 13.8215C57.7307 13.8828 57.5039 13.9716 57.3261 14.0881C57.1484 14.1984 57.0196 14.3364 56.9399 14.5019C56.8603 14.6674 56.8204 14.8513 56.8204 15.0535C56.8204 15.3049 56.9032 15.5225 57.0687 15.7064C57.2403 15.8841 57.464 16.0466 57.7399 16.1937C58.0219 16.3347 58.3375 16.4695 58.6869 16.5983C59.0425 16.7209 59.4041 16.8557 59.7719 17.0028C60.1458 17.1438 60.5075 17.3063 60.8569 17.4901C61.2124 17.674 61.5281 17.8978 61.8039 18.1614C62.0859 18.4249 62.3097 18.7376 62.4752 19.0992C62.6468 19.4547 62.7326 19.8777 62.7326 20.3681ZM74.0969 17.9407C74.0969 19.0318 73.9682 19.9727 73.7107 20.7635C73.4594 21.5542 73.11 22.204 72.6625 22.7127C72.2212 23.2215 71.7002 23.5985 71.0994 23.8437C70.5048 24.0889 69.8673 24.2115 69.1869 24.2115C67.6054 24.2115 66.4163 23.6874 65.6194 22.6392C64.8225 21.5849 64.4241 20.0555 64.4241 18.051C64.4241 16.9599 64.5497 16.019 64.8011 15.2282C65.0585 14.4375 65.4079 13.7877 65.8492 13.279C66.2967 12.7702 66.8178 12.3932 67.4123 12.148C68.0131 11.9028 68.6536 11.7802 69.334 11.7802C70.9155 11.7802 72.1047 12.3043 72.9016 13.3525C73.6985 14.4007 74.0969 15.9301 74.0969 17.9407ZM71.7063 18.051C71.7063 16.6289 71.5163 15.5684 71.1362 14.8697C70.7562 14.1709 70.1309 13.8215 69.2605 13.8215C68.8253 13.8215 68.4544 13.9134 68.1479 14.0973C67.8414 14.2751 67.587 14.5386 67.3848 14.888C67.1886 15.2374 67.0446 15.6696 66.9526 16.1845C66.8607 16.6933 66.8147 17.2787 66.8147 17.9407C66.8147 19.3628 67.0047 20.4233 67.3848 21.1221C67.7709 21.8209 68.3962 22.1703 69.2605 22.1703C69.6957 22.1703 70.0666 22.0814 70.373 21.9036C70.6857 21.7197 70.9401 21.4531 71.1362 21.1037C71.3324 20.7543 71.4764 20.3252 71.5684 19.8164C71.6603 19.3015 71.7063 18.713 71.7063 18.051ZM81.4799 24H78.4824L74.8137 11.9825H77.379L79.4111 19.2188L80.0639 21.591L80.7443 19.0808L82.758 11.9825H85.167L81.4799 24ZM92.789 24L91.0972 20.1382C90.9378 19.7704 90.7141 19.4946 90.426 19.3107C90.144 19.1207 89.8099 19.0257 89.4238 19.0257H88.9916V24H86.7297V11.9825H90.2329C90.8949 11.9825 91.4956 12.0407 92.035 12.1572C92.5745 12.2675 93.0342 12.4545 93.4143 12.7181C93.7943 12.9817 94.0855 13.3249 94.2878 13.7479C94.4962 14.1709 94.6004 14.6888 94.6004 15.3018C94.6004 15.7431 94.536 16.1355 94.4073 16.4787C94.2786 16.822 94.0977 17.1193 93.8648 17.3706C93.6319 17.6158 93.353 17.815 93.0281 17.9683C92.7093 18.1215 92.3599 18.2288 91.9799 18.2901C92.2741 18.3514 92.5438 18.52 92.789 18.7958C93.0342 19.0655 93.2794 19.4578 93.5246 19.9727L95.4463 24H92.789ZM92.2281 15.5225C92.2281 14.934 92.0412 14.5111 91.6673 14.2536C91.2933 13.9962 90.7325 13.8674 89.9846 13.8674H88.9916V17.2603H89.9111C90.2605 17.2603 90.5762 17.2235 90.8581 17.1499C91.1462 17.0764 91.3914 16.966 91.5937 16.8189C91.796 16.6718 91.9523 16.491 92.0626 16.2764C92.173 16.0558 92.2281 15.8044 92.2281 15.5225ZM102.572 19.7428V24H100.273V19.7612L96.3654 11.9825H98.8755L100.641 15.6972L101.45 17.5177L102.259 15.642L104.107 11.9825H106.516L102.572 19.7428ZM113.807 24L110.589 16.8281L109.927 15.2834V20.2669V24H107.868V11.9825H110.644L113.927 19.2004L114.506 20.6072V15.3018V11.9825H116.566V24H113.807ZM138.476 17.9407C138.476 19.0318 138.347 19.9727 138.09 20.7635C137.839 21.5542 137.489 22.204 137.042 22.7127C136.6 23.2215 136.079 23.5985 135.479 23.8437C134.884 24.0889 134.247 24.2115 133.566 24.2115C131.985 24.2115 130.795 23.6874 129.999 22.6392C129.202 21.5849 128.803 20.0555 128.803 18.051C128.803 16.9599 128.929 16.019 129.18 15.2282C129.438 14.4375 129.787 13.7877 130.228 13.279C130.676 12.7702 131.197 12.3932 131.792 12.148C132.392 11.9028 133.033 11.7802 133.713 11.7802C135.295 11.7802 136.484 12.3043 137.281 13.3525C138.078 14.4007 138.476 15.9301 138.476 17.9407ZM136.085 18.051C136.085 16.6289 135.895 15.5684 135.515 14.8697C135.135 14.1709 134.51 13.8215 133.64 13.8215C133.204 13.8215 132.834 13.9134 132.527 14.0973C132.221 14.2751 131.966 14.5386 131.764 14.888C131.568 15.2374 131.424 15.6696 131.332 16.1845C131.24 16.6933 131.194 17.2787 131.194 17.9407C131.194 19.3628 131.384 20.4233 131.764 21.1221C132.15 21.8209 132.775 22.1703 133.64 22.1703C134.075 22.1703 134.446 22.0814 134.752 21.9036C135.065 21.7197 135.319 21.4531 135.515 21.1037C135.712 20.7543 135.856 20.3252 135.948 19.8164C136.039 19.3015 136.085 18.713 136.085 18.051ZM146.438 24L144.746 20.1382C144.587 19.7704 144.363 19.4946 144.075 19.3107C143.793 19.1207 143.459 19.0257 143.073 19.0257H142.641V24H140.379V11.9825H143.882C144.544 11.9825 145.145 12.0407 145.684 12.1572C146.224 12.2675 146.684 12.4545 147.064 12.7181C147.444 12.9817 147.735 13.3249 147.937 13.7479C148.145 14.1709 148.25 14.6888 148.25 15.3018C148.25 15.7431 148.185 16.1355 148.057 16.4787C147.928 16.822 147.747 17.1193 147.514 17.3706C147.281 17.6158 147.002 17.815 146.677 17.9683C146.359 18.1215 146.009 18.2288 145.629 18.2901C145.923 18.3514 146.193 18.52 146.438 18.7958C146.684 19.0655 146.929 19.4578 147.174 19.9727L149.096 24H146.438ZM145.877 15.5225C145.877 14.934 145.69 14.5111 145.317 14.2536C144.943 13.9962 144.382 13.8674 143.634 13.8674H142.641V17.2603H143.56C143.91 17.2603 144.225 17.2235 144.507 17.1499C144.796 17.0764 145.041 16.966 145.243 16.8189C145.445 16.6718 145.602 16.491 145.712 16.2764C145.822 16.0558 145.877 15.8044 145.877 15.5225ZM151.302 13.8306V11.9825H158.897V13.8306H156.249V22.1335H158.897V24H151.302V22.1335H153.95V13.8306H151.302ZM165.884 18.9153V17.0488H170.16V23.4575C169.608 23.715 169.032 23.905 168.431 24.0276C167.831 24.1502 167.178 24.2115 166.473 24.2115C165.639 24.2115 164.888 24.0828 164.22 23.8253C163.558 23.5678 162.994 23.1847 162.528 22.676C162.062 22.1672 161.704 21.5358 161.453 20.7819C161.207 20.0279 161.085 19.1544 161.085 18.1614C161.085 17.1622 161.213 16.2672 161.471 15.4765C161.735 14.6858 162.115 14.0176 162.611 13.4721C163.114 12.9204 163.727 12.5005 164.45 12.2124C165.179 11.9243 166.01 11.7802 166.942 11.7802C167.493 11.7802 168.03 11.8293 168.551 11.9273C169.078 12.0193 169.602 12.145 170.123 12.3043V14.5386C169.67 14.3241 169.167 14.1494 168.615 14.0145C168.07 13.8736 167.518 13.8031 166.96 13.8031C166.396 13.8031 165.897 13.9011 165.461 14.0973C165.032 14.2934 164.671 14.5724 164.376 14.934C164.088 15.2957 163.868 15.7401 163.714 16.2672C163.567 16.7944 163.494 17.389 163.494 18.051C163.494 18.6885 163.552 19.2647 163.668 19.7796C163.785 20.2884 163.972 20.7236 164.229 21.0853C164.493 21.4408 164.83 21.7136 165.241 21.9036C165.651 22.0936 166.151 22.1886 166.74 22.1886C166.88 22.1886 167.003 22.1856 167.107 22.1794C167.211 22.1672 167.31 22.1519 167.402 22.1335C167.493 22.1151 167.579 22.0936 167.659 22.0691C167.745 22.0446 167.834 22.017 167.926 21.9864V18.9153H165.884ZM172.762 13.8306V11.9825H180.357V13.8306H177.708V22.1335H180.357V24H172.762V22.1335H175.41V13.8306H172.762ZM188.916 24L185.698 16.8281L185.036 15.2834V20.2669V24H182.977V11.9825H185.753L189.036 19.2004L189.615 20.6072V15.3018V11.9825H191.675V24H188.916ZM202.221 20.3681C202.221 21.024 202.098 21.5941 201.853 22.0783C201.614 22.5626 201.277 22.9641 200.842 23.2828C200.406 23.5954 199.888 23.8284 199.288 23.9816C198.687 24.1349 198.031 24.2115 197.32 24.2115C196.689 24.2115 196.079 24.1747 195.49 24.1011C194.902 24.0276 194.319 23.905 193.743 23.7334V21.499C194.025 21.5971 194.319 21.6891 194.626 21.7749C194.932 21.8607 195.239 21.9373 195.545 22.0047C195.858 22.066 196.168 22.1151 196.474 22.1519C196.781 22.1886 197.078 22.207 197.366 22.207C197.795 22.207 198.16 22.1703 198.46 22.0967C198.761 22.0231 199.006 21.922 199.196 21.7933C199.386 21.6645 199.524 21.5113 199.609 21.3335C199.695 21.1558 199.738 20.9596 199.738 20.7451C199.738 20.4508 199.652 20.2056 199.481 20.0095C199.315 19.8072 199.095 19.6294 198.819 19.4762C198.543 19.323 198.227 19.185 197.872 19.0624C197.522 18.9398 197.164 18.8081 196.796 18.6671C196.434 18.5261 196.076 18.3667 195.72 18.1889C195.371 18.0112 195.058 17.7905 194.782 17.5269C194.506 17.2633 194.283 16.9507 194.111 16.5891C193.946 16.2213 193.863 15.7799 193.863 15.265C193.863 14.793 193.949 14.3456 194.12 13.9226C194.292 13.4996 194.562 13.1319 194.929 12.8192C195.297 12.5005 195.769 12.2492 196.345 12.0653C196.922 11.8752 197.617 11.7802 198.433 11.7802C198.672 11.7802 198.92 11.7925 199.177 11.817C199.441 11.8354 199.698 11.863 199.95 11.8998C200.207 11.9304 200.452 11.9703 200.685 12.0193C200.924 12.0622 201.142 12.1082 201.338 12.1572V14.226C201.142 14.1525 200.927 14.085 200.694 14.0237C200.462 13.9624 200.219 13.9103 199.968 13.8674C199.723 13.8184 199.475 13.7816 199.223 13.7571C198.972 13.7326 198.733 13.7203 198.506 13.7203C198.108 13.7203 197.771 13.754 197.495 13.8215C197.219 13.8828 196.992 13.9716 196.814 14.0881C196.637 14.1984 196.508 14.3364 196.428 14.5019C196.348 14.6674 196.309 14.8513 196.309 15.0535C196.309 15.3049 196.391 15.5225 196.557 15.7064C196.728 15.8841 196.952 16.0466 197.228 16.1937C197.51 16.3347 197.826 16.4695 198.175 16.5983C198.531 16.7209 198.892 16.8557 199.26 17.0028C199.634 17.1438 199.996 17.3063 200.345 17.4901C200.701 17.674 201.016 17.8978 201.292 18.1614C201.574 18.4249 201.798 18.7376 201.963 19.0992C202.135 19.4547 202.221 19.8777 202.221 20.3681Z" fill="white"/>
<defs>
<clipPath id="clip0_101:2">
<rect width="34.5231" height="32.9538" fill="white"/>
</clipPath>
</defs>
</svg>
