<svg width="1061" height="347" viewBox="0 0 1061 347" fill="none" xmlns="http://www.w3.org/2000/svg">
<path d="M935.305 4.03204C937.451 3.18661 936.845 0 934.54 0C934.255 0 933.973 0.058169 933.712 0.170936L813.73 51.9448L935.305 4.03204ZM569.204 45.5937L588.982 2.3967C589.495 1.27586 588.676 0 587.443 0C586.738 0 586.106 0.438022 585.859 1.09901L569.204 45.5937ZM499.592 0C498.142 0 497.02 1.26987 497.198 2.70879L505.091 66.4558L502.002 2.29634C501.94 1.01062 500.879 0 499.592 0ZM774.036 0C773.937 0 773.84 0.0306578 773.759 0.0877828L754.456 13.6697L774.297 0.887027C774.702 0.626677 774.517 0 774.036 0ZM336.445 347C336.959 347 337.452 346.796 337.816 346.433L395.38 288.956L335.141 343.623C333.827 344.815 334.671 347 336.445 347ZM843.731 1.98026C844.713 1.48205 844.358 0 843.257 0C843.08 0 842.905 0.0450231 842.75 0.130847L791.75 28.3488L843.731 1.98026ZM714.387 0C714.334 0 714.283 0.0202179 714.245 0.0565157L708.552 5.42582L714.521 0.365516C714.668 0.240665 714.58 0 714.387 0ZM26.9889 1.27066C24.6836 0.43006 22.2487 0 19.7949 0H11.9134C11.307 0 10.7222 0.2254 10.2726 0.632419C8.8838 1.88983 9.36741 4.17796 11.1462 4.76587L282.811 94.5522L26.9889 1.27066ZM289.825 0.248982C289.625 0.0878664 289.376 0 289.119 0C288.036 0 287.58 1.3833 288.452 2.02702L330.658 33.1858L289.825 0.248982ZM339.531 0.506347C339.216 0.182632 338.784 0 338.332 0C336.814 0 336.082 1.85989 337.192 2.89478L386.847 49.1688L339.531 0.506347ZM180.524 0.911711C179.471 0.35042 178.195 0.414212 177.204 1.07768C175.13 2.4652 175.342 5.57858 177.584 6.67251L339.267 85.5513L180.524 0.911711ZM193.586 0.251156C193.292 0.086479 192.961 0 192.624 0C190.56 0 189.889 2.77384 191.725 3.71729L288.449 53.417L193.586 0.251156ZM434.032 0C433.374 0 432.947 0.693351 433.244 1.28072L445.321 25.2364L434.845 0.538278C434.707 0.211946 434.387 0 434.032 0ZM1057.53 159.4C1059.42 159.359 1060.92 157.819 1060.92 155.934C1060.92 153.956 1059.27 152.379 1057.3 152.471L778.227 165.508L1057.53 159.4ZM926.678 267.243C927.573 267.451 928.503 267.084 929.013 266.319C929.882 265.018 929.155 263.25 927.622 262.936L768.055 230.24L926.678 267.243ZM933.383 170.421C933.341 169.214 932.336 168.266 931.129 168.295L759.751 172.448L931.179 172.698C932.426 172.699 933.425 171.667 933.383 170.421ZM1021.45 298.958C1022.38 299.193 1023.36 298.852 1023.94 298.091C1024.99 296.71 1024.26 294.705 1022.56 294.324L846.606 254.677L1021.45 298.958ZM1053.35 344.413C1053.45 344.446 1053.56 344.463 1053.67 344.463C1053.88 344.463 1054.09 344.394 1054.27 344.266L1054.95 343.768C1057.35 342.01 1056.69 338.264 1053.83 337.427L820.93 269.188L1053.35 344.413ZM228.743 0.112674C228.627 0.0390779 228.492 0 228.355 0C227.615 0 227.351 0.978353 227.991 1.35048L260.793 20.4415L228.743 0.112674ZM863.566 49.4078C862.556 48.4869 861.114 48.2107 859.835 48.6929L723.79 99.9781L837.692 60.9458L751.446 92.5333L1013.05 5.74495C1015.15 5.04617 1015.76 2.35827 1014.16 0.821314C1013.61 0.2943 1012.88 0 1012.12 0H1006.86C1004.97 0 1003.11 0.33159 1001.34 0.979571L867.266 50.1343C865.994 50.6008 864.568 50.3207 863.566 49.4078ZM827.33 85.7616L1058.38 23.3588C1059.88 22.9527 1060.92 21.5889 1060.92 20.0317C1060.92 17.7215 1058.7 16.0654 1056.48 16.7318L827.33 85.7616ZM1053.49 82.4174C1052.66 80.7601 1050.83 79.8497 1049.01 80.1829L737.809 137.033L1050.4 88.4068C1053.19 87.9723 1054.75 84.9444 1053.49 82.4174ZM1058.84 113.201C1060.07 113.072 1061 112.036 1061 110.801C1061 109.345 1059.72 108.22 1058.28 108.408L868.548 133.08L1058.84 113.201ZM1058.95 69.9453C1060.14 69.7268 1061 68.6911 1061 67.483C1061 65.8919 1059.54 64.7044 1057.98 65.0335L873.386 104.058L1058.95 69.9453ZM671.491 0C670.835 0 670.212 0.285193 669.783 0.781385L612.593 66.9605L673.12 3.81947C674.496 2.38423 673.479 0 671.491 0ZM869.726 346.586C870.279 346.858 870.888 347 871.505 347C875.846 347 877.119 341.079 873.16 339.296L656.858 241.848L869.726 346.586ZM795.309 5.51852C797.909 3.98481 796.821 0 793.802 0C793.234 0 792.677 0.16364 792.198 0.471399L663.411 83.3221L795.309 5.51852ZM681.117 0.499601C681.302 0.315663 681.172 0 680.911 0C680.829 0 680.75 0.0349048 680.695 0.0960933L673.163 8.41212L681.117 0.499601ZM552.474 345.373C552.655 346.317 553.48 347 554.442 347C555.759 347 556.717 345.751 556.377 344.479L542.119 291.228L552.474 345.373ZM512.367 33.6485L513.027 1.27149C513.041 0.573494 512.479 0 511.781 0C511.065 0 510.497 0.601788 510.537 1.31653L512.367 33.6485ZM676.69 345.996C677.283 346.636 678.116 347 678.989 347C681.798 347 683.188 343.587 681.176 341.625L592.784 255.392L676.69 345.996ZM408.673 347C408.768 347 408.856 346.949 408.904 346.867L413.36 339.135L408.451 346.588C408.335 346.764 408.462 347 408.673 347ZM115.26 0.217136C114.942 0.0740123 114.598 0 114.249 0C111.556 0 110.823 3.70632 113.313 4.73211L252.527 62.0815L115.26 0.217136ZM259.826 347C260.059 347 260.286 346.929 260.476 346.795L306.735 314.445L259.214 344.911C258.26 345.522 258.693 347 259.826 347ZM223.686 347C223.788 347 223.887 346.972 223.974 346.919L248.527 331.816L223.417 345.973C222.925 346.25 223.121 347 223.686 347ZM700.183 346.682C700.396 346.886 700.679 347 700.974 347C702.029 347 702.519 345.692 701.724 344.998L665.925 313.772L700.183 346.682ZM1058.41 216.987C1059.76 217.102 1060.92 216.034 1060.92 214.675C1060.92 213.448 1059.97 212.433 1058.74 212.359L872.7 201.176L1058.41 216.987ZM1020.92 227.639C1021.33 226.339 1020.44 224.993 1019.08 224.87L850.758 209.714L1018.65 229.113C1019.66 229.23 1020.61 228.612 1020.92 227.639ZM1058.11 165.326C1059.67 165.311 1060.92 164.042 1060.92 162.482C1060.92 160.872 1059.59 159.583 1057.98 159.639L829.844 167.611L1058.11 165.326ZM1057.79 268.454C1059.42 268.749 1060.92 267.494 1060.92 265.835C1060.92 264.521 1059.97 263.404 1058.67 263.205L857.348 232.259L1057.79 268.454ZM951.296 346.771C951.668 346.922 952.067 347 952.469 347C955.956 347 956.823 342.152 953.551 340.945L766.57 271.922L951.296 346.771ZM799.851 346.661C800.208 346.883 800.62 347 801.04 347C803.358 347 804.17 343.926 802.156 342.781L699.105 284.203L799.851 346.661ZM453.358 347C454.335 347 455.199 346.369 455.497 345.439L475.187 283.909L451.271 343.923C450.684 345.397 451.77 347 453.358 347ZM1.8729 153.908C0.853759 153.858 0 154.67 0 155.691C0 156.66 0.772892 157.452 1.74152 157.475L146.167 161.008L1.8729 153.908ZM2.86945 270.104C1.20885 270.401 0 271.846 0 273.533C0 275.74 2.02699 277.391 4.18874 276.944L260.45 223.973L2.86945 270.104ZM1.95159 209.474C0.85578 209.538 0 210.445 0 211.543C0 212.755 1.03552 213.708 2.24348 213.609L174.548 199.367L1.95159 209.474ZM67.7323 231.897C68.2215 233.214 69.5601 234.014 70.9517 233.822L303.459 201.639L70.206 227.877C68.2708 228.094 67.0543 230.071 67.7323 231.897ZM3.433 19.0423C1.73212 18.506 0 19.7761 0 21.5595C0 22.7396 0.783401 23.7763 1.91867 24.0985L177.824 74.0267L3.433 19.0423ZM1.14758 333.615C0.466205 333.82 0 334.448 0 335.16C0 335.578 0.162291 335.98 0.452692 336.281L1.93269 337.814C3.77747 339.726 6.5567 340.407 9.07621 339.565L267.574 253.163L1.14758 333.615ZM55.1433 89.5226C54.6151 90.4333 55.1536 91.5918 56.1903 91.775L363.381 146.076L161.481 104.899L189.671 110.157L32.1472 76.4144C31.3513 76.2439 30.5346 76.5952 30.111 77.2904C29.6899 77.9816 28.8796 78.3333 28.0871 78.1689L3.01476 72.9694C1.45926 72.6469 0 73.8346 0 75.4231C0 76.6356 0.868069 77.6742 2.06131 77.8893L54.1015 87.2711C55.1354 87.4575 55.6705 88.6139 55.1433 89.5226ZM82.6171 341.454C79.6324 342.575 80.4357 347 83.6238 347C83.9965 347 84.3656 346.927 84.7104 346.786L139.197 324.444C140.065 324.088 141.058 324.237 141.783 324.831C142.512 325.428 143.511 325.575 144.381 325.213L331.077 247.527L147.501 317.095L82.6171 341.454ZM2.27748 304.802C0.940341 305.129 0 306.328 0 307.705C0 309.678 1.87881 311.11 3.78173 310.587L209.518 254.004L2.27748 304.802ZM3.22727 144.102C1.48033 143.987 0 145.373 0 147.124C0 148.748 1.28135 150.083 2.90412 150.149L245.517 160.083L3.22727 144.102ZM155.773 347C156.045 347 156.313 346.937 156.557 346.817L249.746 300.733L155.043 343.619C153.308 344.405 153.869 347 155.773 347ZM2.32081 243.659C0.994629 243.826 0 244.954 0 246.291C0 247.915 1.44611 249.157 3.05152 248.913L206.966 217.874L2.32081 243.659ZM2.56444 117.278C1.2004 117.114 0 118.18 0 119.553C0 120.736 0.899553 121.724 2.07673 121.835L182.128 138.8L2.56444 117.278ZM1.83503 193.805C0.813146 193.834 0 194.671 0 195.693C0 196.776 0.907873 197.637 1.98897 197.58L159.348 189.273L1.83503 193.805Z" fill="black"/>
</svg>
