<svg width="79" height="79" viewBox="0 0 79 79" fill="none" xmlns="http://www.w3.org/2000/svg">
<path d="M34.1786 13.1575L6.48804 59.3846C5.91712 60.3733 5.61504 61.4942 5.61184 62.6359C5.60865 63.7776 5.90445 64.9002 6.46982 65.8921C7.03518 66.884 7.85041 67.7105 8.8344 68.2895C9.81839 68.8685 10.9368 69.1798 12.0784 69.1923H67.4595C68.6011 69.1798 69.7195 68.8685 70.7035 68.2895C71.6875 67.7105 72.5027 66.884 73.0681 65.8921C73.6335 64.9002 73.9293 63.7776 73.9261 62.6359C73.9229 61.4942 73.6208 60.3733 73.0499 59.3846L45.3594 13.1575C44.7766 12.1966 43.956 11.4023 42.9767 10.851C41.9975 10.2996 40.8927 10.01 39.769 10.01C38.6452 10.01 37.5404 10.2996 36.5612 10.851C35.582 11.4023 34.7614 12.1966 34.1786 13.1575V13.1575Z" stroke="white" stroke-width="4" stroke-linecap="round" stroke-linejoin="round"/>
<path d="M39.769 29.9612V43.0382" stroke="white" stroke-width="4" stroke-linecap="round" stroke-linejoin="round"/>
<path d="M39.769 56.1152H39.8017" stroke="white" stroke-width="4" stroke-linecap="round" stroke-linejoin="round"/>
</svg>
