<svg width="32" height="32" viewBox="0 0 32 32" fill="none" xmlns="http://www.w3.org/2000/svg">
<path d="M16 20C18.2091 20 20 18.2091 20 16C20 13.7909 18.2091 12 16 12C13.7909 12 12 13.7909 12 16C12 18.2091 13.7909 20 16 20Z" stroke="black" stroke-width="2" stroke-linecap="round" stroke-linejoin="round"/>
<path d="M25.8654 20.0006C25.6879 20.4028 25.6349 20.8489 25.7134 21.2814C25.7918 21.714 25.998 22.1131 26.3054 22.4273L26.3854 22.5073C26.6333 22.755 26.83 23.0491 26.9642 23.3728C27.0984 23.6965 27.1675 24.0435 27.1675 24.394C27.1675 24.7444 27.0984 25.0914 26.9642 25.4152C26.83 25.7389 26.6333 26.033 26.3854 26.2806C26.1377 26.5286 25.8436 26.7253 25.5199 26.8595C25.1961 26.9937 24.8491 27.0627 24.4987 27.0627C24.1483 27.0627 23.8013 26.9937 23.4775 26.8595C23.1538 26.7253 22.8597 26.5286 22.612 26.2806L22.532 26.2006C22.2178 25.8933 21.8187 25.6871 21.3861 25.6086C20.9536 25.5302 20.5075 25.5832 20.1054 25.7606C19.711 25.9297 19.3747 26.2103 19.1378 26.568C18.9009 26.9258 18.7737 27.3449 18.772 27.774V28.0006C18.772 28.7079 18.4911 29.3862 17.991 29.8863C17.4909 30.3864 16.8126 30.6673 16.1054 30.6673C15.3981 30.6673 14.7198 30.3864 14.2197 29.8863C13.7196 29.3862 13.4387 28.7079 13.4387 28.0006V27.8806C13.4284 27.4393 13.2855 27.0113 13.0287 26.6523C12.7719 26.2932 12.413 26.0197 11.9987 25.8673C11.5965 25.6898 11.1504 25.6369 10.7179 25.7153C10.2854 25.7937 9.88627 25.9999 9.57203 26.3073L9.49203 26.3873C9.24437 26.6353 8.95027 26.8319 8.62654 26.9661C8.30281 27.1003 7.95581 27.1694 7.60536 27.1694C7.25492 27.1694 6.90792 27.1003 6.58419 26.9661C6.26046 26.8319 5.96636 26.6353 5.7187 26.3873C5.47076 26.1397 5.27407 25.8456 5.13987 25.5218C5.00567 25.1981 4.9366 24.8511 4.9366 24.5006C4.9366 24.1502 5.00567 23.8032 5.13987 23.4795C5.27407 23.1557 5.47076 22.8616 5.7187 22.614L5.7987 22.534C6.10608 22.2197 6.31228 21.8206 6.3907 21.3881C6.46913 20.9556 6.41618 20.5095 6.2387 20.1073C6.06968 19.713 5.78904 19.3766 5.43132 19.1397C5.0736 18.9028 4.65441 18.7757 4.22536 18.774H3.9987C3.29145 18.774 2.61318 18.493 2.11308 17.9929C1.61298 17.4928 1.33203 16.8146 1.33203 16.1073C1.33203 15.4001 1.61298 14.7218 2.11308 14.2217C2.61318 13.7216 3.29145 13.4407 3.9987 13.4407H4.1187C4.56002 13.4303 4.98804 13.2875 5.3471 13.0307C5.70616 12.7739 5.97965 12.415 6.13203 12.0007C6.30952 11.5985 6.36246 11.1524 6.28404 10.7199C6.20561 10.2873 5.99941 9.88822 5.69203 9.57398L5.61203 9.49398C5.36409 9.24632 5.1674 8.95222 5.03321 8.62849C4.89901 8.30476 4.82993 7.95776 4.82993 7.60732C4.82993 7.25688 4.89901 6.90987 5.03321 6.58614C5.1674 6.26241 5.36409 5.96831 5.61203 5.72065C5.85969 5.47271 6.1538 5.27602 6.47752 5.14182C6.80125 5.00763 7.14826 4.93855 7.4987 4.93855C7.84914 4.93855 8.19614 5.00763 8.51987 5.14182C8.8436 5.27602 9.1377 5.47271 9.38536 5.72065L9.46536 5.80065C9.7796 6.10803 10.1787 6.31423 10.6112 6.39266C11.0438 6.47108 11.4899 6.41814 11.892 6.24065H11.9987C12.3931 6.07163 12.7294 5.79099 12.9663 5.43327C13.2032 5.07555 13.3303 4.65637 13.332 4.22732V4.00065C13.332 3.29341 13.613 2.61513 14.1131 2.11503C14.6132 1.61494 15.2915 1.33398 15.9987 1.33398C16.7059 1.33398 17.3842 1.61494 17.8843 2.11503C18.3844 2.61513 18.6654 3.29341 18.6654 4.00065V4.12065C18.6671 4.5497 18.7942 4.96888 19.0311 5.3266C19.268 5.68433 19.6043 5.96497 19.9987 6.13398C20.4009 6.31147 20.847 6.36442 21.2795 6.28599C21.712 6.20756 22.1111 6.00137 22.4254 5.69398L22.5054 5.61398C22.753 5.36605 23.0471 5.16936 23.3709 5.03516C23.6946 4.90096 24.0416 4.83189 24.392 4.83189C24.7425 4.83189 25.0895 4.90096 25.4132 5.03516C25.7369 5.16936 26.031 5.36605 26.2787 5.61398C26.5266 5.86165 26.7233 6.15575 26.8575 6.47948C26.9917 6.8032 27.0608 7.15021 27.0608 7.50065C27.0608 7.85109 26.9917 8.1981 26.8575 8.52182C26.7233 8.84555 26.5266 9.13966 26.2787 9.38732L26.1987 9.46732C25.8913 9.78156 25.6851 10.1807 25.6067 10.6132C25.5283 11.0457 25.5812 11.4918 25.7587 11.894V12.0007C25.9277 12.395 26.2084 12.7313 26.5661 12.9682C26.9238 13.2051 27.343 13.3323 27.772 13.334H27.9987C28.7059 13.334 29.3842 13.6149 29.8843 14.115C30.3844 14.6151 30.6654 15.2934 30.6654 16.0007C30.6654 16.7079 30.3844 17.3862 29.8843 17.8863C29.3842 18.3864 28.7059 18.6673 27.9987 18.6673H27.8787C27.4496 18.669 27.0305 18.7962 26.6727 19.0331C26.315 19.27 26.0344 19.6063 25.8654 20.0006V20.0006Z" stroke="black" stroke-width="2" stroke-linecap="round" stroke-linejoin="round"/>
</svg>
