<svg width="1440" height="290" viewBox="0 0 1440 290" fill="none" xmlns="http://www.w3.org/2000/svg">
<path d="M449.372 289.788L530.795 216.665L441.208 289.788H449.372ZM1463 53.3583V44.5094L1067.04 61.1474L1463 53.3583ZM1277.05 189.748L1280.78 184.714L1052.79 142.695L1277.05 189.748ZM1284.25 64.5916L1041.16 69.8904L1284.47 70.2083L1284.25 64.5916ZM1409.86 229.753L1414.34 224.455L1162.81 173.481L1409.86 229.753ZM1462.15 290H1462.84V280.303L1126.85 191.761L1462.15 290ZM1196.37 289.788H1223.96L897.039 157.32L1196.37 289.788ZM751.267 289.788H757.243L736.327 219.527L751.267 289.788ZM926.119 289.788H938.818L807.292 174.382L926.119 289.788ZM549.63 289.788L555.98 279.879L548.723 289.788H549.63ZM341.43 289.788L406.633 248.776L335.508 289.788H341.43ZM290.527 289.788L325.103 270.66L287.379 289.788H290.527ZM958.187 289.788H963.096L909.738 247.928L958.187 289.788ZM1463 126.269V120.334L1199.36 106.081L1463 126.269ZM1408.1 136.231L1168.63 116.837L1406.23 141.529L1408.1 136.231ZM1463 60.8825V53.6232L1139.33 63.7968L1463 60.8825ZM1463 191.549V184.661L1177.86 145.238L1463 191.549ZM1310.24 289.788H1335.58L1050.71 195.206L1310.24 289.788ZM1098.09 289.788H1110.95L956.213 210.678L1098.09 289.788ZM614.299 289.788L642.579 210.307L607.363 289.788H614.299ZM-23 46.417V50.9739L181.732 55.4778L-23 46.417ZM-23 193.563V202.624L341.804 134.8L-23 193.563ZM-23 116.678V121.977L221.483 103.802L-23 116.678ZM73.0431 147.623L402.044 106.664L70.0017 140.258L73.0431 147.623ZM-23 273.362V275.693L-16.0636 282.158L351.781 171.573L-23 273.362ZM72.0293 289.788H94.9196L173.942 260.645L177.25 263.082L440.728 164.473L183.599 252.114L72.0293 289.788ZM-23 237.331V245.226L270.465 172.633L-23 237.331ZM-23 33.9119V41.6481L320.888 54.3121L-23 33.9119ZM195.765 289.788L326.81 231.502L183.706 289.788H195.765ZM-23 159.969V166.804L266.89 127.117L-23 159.969ZM-23 0V5.8816L232.101 27.5005L-23 0ZM-23 96.8609V101.683L200.193 91.0853L-23 96.8609Z" fill="black"/>
</svg>
